<svg width="1000" height="700" viewBox="0 0 1000 700" fill="none" xmlns="http://www.w3.org/2000/svg">
<rect width="1000" height="700" fill="white"/>
<path d="M481 94.5C469.393 213.686 477.482 278.746 544 388.5" stroke="#1C4E63" stroke-width="20"/>
<path d="M785 208.5V258" stroke="#6022AF" stroke-width="20"/>
<path d="M672.5 58C743.572 79.2124 752.205 106.424 766.5 155.5" stroke="#1C4E63" stroke-width="20"/>
<path d="M535.5 84.5C554.5 180.5 541.5 231 600 287.5" stroke="#1C4E63" stroke-width="20"/>
<rect x="299" y="31" width="386.163" height="65.6896" rx="25" fill="white" stroke="#1C4E63" stroke-width="10"/>
<path d="M315.841 81.0521V45.5052H325.875C328.967 45.5052 331.702 46.1888 334.078 47.556C336.454 48.9232 338.285 50.8682 339.571 53.3909C340.873 55.9137 341.532 58.8109 341.549 62.0824V64.3529C341.549 67.7057 340.898 70.6435 339.595 73.1663C338.31 75.6891 336.462 77.626 334.053 78.9769C331.661 80.3278 328.87 81.0195 325.679 81.0521H315.841ZM320.528 49.3626V77.2191H325.46C329.073 77.2191 331.881 76.096 333.883 73.8499C335.901 71.6038 336.91 68.4056 336.91 64.2552V62.18C336.91 58.1435 335.958 55.0104 334.053 52.7806C332.165 50.5345 329.48 49.3952 325.997 49.3626H320.528ZM360.714 58.6888C360.03 58.5749 359.289 58.5179 358.492 58.5179C355.53 58.5179 353.52 59.7793 352.462 62.3021V81.0521H347.945V54.6361H352.34L352.413 57.6878C353.894 55.3278 355.994 54.1478 358.712 54.1478C359.591 54.1478 360.258 54.2617 360.714 54.4896V58.6888ZM380.22 81.0521C379.96 80.5312 379.748 79.6035 379.586 78.2689C377.486 80.4499 374.98 81.5404 372.066 81.5404C369.462 81.5404 367.322 80.8079 365.645 79.3431C363.985 77.862 363.155 75.9902 363.155 73.7279C363.155 70.9772 364.197 68.845 366.28 67.3314C368.38 65.8014 371.326 65.0365 375.118 65.0365H379.512V62.9613C379.512 61.3825 379.04 60.1292 378.096 59.2015C377.152 58.2575 375.761 57.7855 373.922 57.7855C372.31 57.7855 370.959 58.1924 369.869 59.0062C368.778 59.82 368.233 60.8047 368.233 61.9603H363.692C363.692 60.6419 364.156 59.3724 365.084 58.1517C366.028 56.9147 367.297 55.9381 368.892 55.222C370.504 54.5059 372.27 54.1478 374.19 54.1478C377.234 54.1478 379.618 54.9128 381.343 56.4427C383.069 57.9564 383.964 60.0478 384.029 62.7171V74.8753C384.029 77.3005 384.338 79.2292 384.957 80.6615V81.0521H380.22ZM372.725 77.6097C374.141 77.6097 375.484 77.2435 376.754 76.5111C378.023 75.7786 378.943 74.8265 379.512 73.6546V68.2347H375.972C370.439 68.2347 367.672 69.8542 367.672 73.0931C367.672 74.5091 368.144 75.6159 369.088 76.4134C370.032 77.2109 371.244 77.6097 372.725 77.6097ZM414.498 74.8265L419.576 54.6361H424.093L416.402 81.0521H412.74L406.319 61.0325L400.069 81.0521H396.407L388.741 54.6361H393.233L398.433 74.4115L404.586 54.6361H408.223L414.498 74.8265ZM445.015 81.0521C444.755 80.5312 444.543 79.6035 444.381 78.2689C442.281 80.4499 439.774 81.5404 436.861 81.5404C434.257 81.5404 432.117 80.8079 430.44 79.3431C428.78 77.862 427.95 75.9902 427.95 73.7279C427.95 70.9772 428.992 68.845 431.075 67.3314C433.175 65.8014 436.121 65.0365 439.913 65.0365H444.307V62.9613C444.307 61.3825 443.835 60.1292 442.891 59.2015C441.947 58.2575 440.556 57.7855 438.717 57.7855C437.105 57.7855 435.754 58.1924 434.664 59.0062C433.573 59.82 433.028 60.8047 433.028 61.9603H428.487C428.487 60.6419 428.951 59.3724 429.879 58.1517C430.823 56.9147 432.092 55.9381 433.687 55.222C435.299 54.5059 437.065 54.1478 438.985 54.1478C442.029 54.1478 444.413 54.9128 446.138 56.4427C447.864 57.9564 448.759 60.0478 448.824 62.7171V74.8753C448.824 77.3005 449.133 79.2292 449.752 80.6615V81.0521H445.015ZM437.52 77.6097C438.936 77.6097 440.279 77.2435 441.549 76.5111C442.818 75.7786 443.738 74.8265 444.307 73.6546V68.2347H440.767C435.233 68.2347 432.467 69.8542 432.467 73.0931C432.467 74.5091 432.939 75.6159 433.883 76.4134C434.827 77.2109 436.039 77.6097 437.52 77.6097ZM478.267 68.137C478.267 72.1735 477.34 75.4206 475.484 77.8783C473.629 80.3197 471.138 81.5404 468.013 81.5404C464.677 81.5404 462.097 80.3603 460.274 78.0003L460.054 81.0521H455.904V43.5521H460.421V57.5413C462.244 55.279 464.758 54.1478 467.965 54.1478C471.171 54.1478 473.686 55.3603 475.509 57.7855C477.348 60.2106 478.267 63.5309 478.267 67.7464V68.137ZM473.751 67.6243C473.751 64.5482 473.157 62.1719 471.968 60.4954C470.78 58.819 469.071 57.9808 466.842 57.9808C463.863 57.9808 461.723 59.3643 460.421 62.1312V73.557C461.804 76.3239 463.961 77.7074 466.89 77.7074C469.055 77.7074 470.74 76.8691 471.944 75.1927C473.149 73.5163 473.751 70.9935 473.751 67.6243ZM488.887 81.0521H484.371V43.5521H488.887V81.0521ZM507.1 81.5404C503.52 81.5404 500.606 80.3685 498.36 78.0247C496.114 75.6647 494.991 72.5153 494.991 68.5765V67.7464C494.991 65.126 495.487 62.7904 496.48 60.7396C497.489 58.6725 498.889 57.0612 500.679 55.9056C502.486 54.7337 504.439 54.1478 506.539 54.1478C509.973 54.1478 512.642 55.279 514.547 57.5413C516.451 59.8037 517.403 63.0426 517.403 67.2581V69.138H499.508C499.573 71.7422 500.329 73.8499 501.778 75.4613C503.243 77.0563 505.098 77.8538 507.344 77.8538C508.94 77.8538 510.29 77.5283 511.397 76.8773C512.504 76.2262 513.472 75.3636 514.302 74.2894L517.061 76.4378C514.848 79.8395 511.527 81.5404 507.1 81.5404ZM506.539 57.8587C504.716 57.8587 503.186 58.526 501.949 59.8607C500.712 61.179 499.947 63.0345 499.654 65.4271H512.886V65.0853C512.756 62.7904 512.138 61.0163 511.031 59.763C509.924 58.4935 508.427 57.8587 506.539 57.8587ZM550.704 64.4261C550.704 67.9092 550.118 70.9528 548.946 73.557C547.774 76.1449 546.114 78.1224 543.966 79.4896C541.817 80.8568 539.311 81.5404 536.446 81.5404C533.647 81.5404 531.164 80.8568 529 79.4896C526.835 78.1061 525.15 76.1449 523.946 73.6058C522.758 71.0505 522.148 68.0963 522.115 64.7435V62.18C522.115 58.762 522.709 55.7428 523.897 53.1224C525.085 50.5019 526.762 48.5 528.927 47.1165C531.107 45.7168 533.598 45.0169 536.397 45.0169C539.246 45.0169 541.752 45.7087 543.917 47.0921C546.098 48.4593 547.774 50.4531 548.946 53.0736C550.118 55.6777 550.704 58.7132 550.704 62.18V64.4261ZM546.041 62.1312C546.041 57.9157 545.194 54.6849 543.502 52.4388C541.809 50.1764 539.441 49.0452 536.397 49.0452C533.435 49.0452 531.099 50.1764 529.39 52.4388C527.698 54.6849 526.827 57.8099 526.778 61.8138V64.4261C526.778 68.5114 527.633 71.7259 529.342 74.0697C531.067 76.3971 533.435 77.5609 536.446 77.5609C539.473 77.5609 541.817 76.4622 543.477 74.265C545.137 72.0514 545.992 68.8857 546.041 64.7679V62.1312ZM579.39 68.137C579.39 72.1735 578.463 75.4206 576.607 77.8783C574.752 80.3197 572.261 81.5404 569.136 81.5404C565.8 81.5404 563.22 80.3603 561.397 78.0003L561.177 81.0521H557.027V43.5521H561.544V57.5413C563.367 55.279 565.881 54.1478 569.088 54.1478C572.294 54.1478 574.809 55.3603 576.632 57.7855C578.471 60.2106 579.39 63.5309 579.39 67.7464V68.137ZM574.874 67.6243C574.874 64.5482 574.28 62.1719 573.092 60.4954C571.903 58.819 570.194 57.9808 567.965 57.9808C564.986 57.9808 562.846 59.3643 561.544 62.1312V73.557C562.927 76.3239 565.084 77.7074 568.013 77.7074C570.178 77.7074 571.863 76.8691 573.067 75.1927C574.272 73.5163 574.874 70.9935 574.874 67.6243ZM589.766 54.6361V84.1038C589.766 89.182 587.463 91.721 582.857 91.721C581.864 91.721 580.945 91.5745 580.098 91.2816V87.6683C580.619 87.7985 581.303 87.8636 582.149 87.8636C583.158 87.8636 583.923 87.5869 584.444 87.0335C584.981 86.4964 585.25 85.5524 585.25 84.2015V54.6361H589.766ZM584.786 47.6292C584.786 46.9131 585.006 46.3027 585.445 45.7982C585.901 45.2773 586.56 45.0169 587.423 45.0169C588.302 45.0169 588.969 45.2692 589.425 45.7738C589.88 46.2783 590.108 46.8968 590.108 47.6292C590.108 48.3616 589.88 48.972 589.425 49.4603C588.969 49.9486 588.302 50.1927 587.423 50.1927C586.544 50.1927 585.885 49.9486 585.445 49.4603C585.006 48.972 584.786 48.3616 584.786 47.6292ZM608.028 81.5404C604.447 81.5404 601.534 80.3685 599.288 78.0247C597.042 75.6647 595.919 72.5153 595.919 68.5765V67.7464C595.919 65.126 596.415 62.7904 597.408 60.7396C598.417 58.6725 599.817 57.0612 601.607 55.9056C603.414 54.7337 605.367 54.1478 607.467 54.1478C610.901 54.1478 613.57 55.279 615.474 57.5413C617.379 59.8037 618.331 63.0426 618.331 67.2581V69.138H600.435C600.5 71.7422 601.257 73.8499 602.706 75.4613C604.171 77.0563 606.026 77.8538 608.272 77.8538C609.867 77.8538 611.218 77.5283 612.325 76.8773C613.432 76.2262 614.4 75.3636 615.23 74.2894L617.989 76.4378C615.775 79.8395 612.455 81.5404 608.028 81.5404ZM607.467 57.8587C605.644 57.8587 604.114 58.526 602.877 59.8607C601.64 61.179 600.875 63.0345 600.582 65.4271H613.814V65.0853C613.684 62.7904 613.066 61.0163 611.959 59.763C610.852 58.4935 609.355 57.8587 607.467 57.8587ZM634.176 77.8538C635.787 77.8538 637.195 77.3656 638.399 76.389C639.604 75.4124 640.271 74.1917 640.401 72.7269H644.674C644.592 74.2406 644.071 75.681 643.111 77.0482C642.151 78.4154 640.865 79.5059 639.254 80.3197C637.659 81.1335 635.966 81.5404 634.176 81.5404C630.579 81.5404 627.714 80.3441 625.582 77.9515C623.466 75.5426 622.408 72.2549 622.408 68.0882V67.3314C622.408 64.7598 622.88 62.473 623.824 60.471C624.768 58.4691 626.119 56.9147 627.877 55.8079C629.651 54.7012 631.742 54.1478 634.151 54.1478C637.113 54.1478 639.571 55.0348 641.524 56.8089C643.494 58.583 644.543 60.8861 644.674 63.7181H640.401C640.271 62.0091 639.62 60.6094 638.448 59.5189C637.292 58.4121 635.86 57.8587 634.151 57.8587C631.856 57.8587 630.074 58.6888 628.804 60.349C627.551 61.9928 626.925 64.3773 626.925 67.5023V68.3568C626.925 71.4004 627.551 73.7441 628.804 75.388C630.058 77.0319 631.848 77.8538 634.176 77.8538ZM655.88 48.2396V54.6361H660.811V58.1273H655.88V74.5091C655.88 75.5671 656.099 76.3646 656.539 76.9017C656.978 77.4225 657.727 77.6829 658.785 77.6829C659.306 77.6829 660.022 77.5853 660.933 77.39V81.0521C659.745 81.3776 658.59 81.5404 657.467 81.5404C655.448 81.5404 653.927 80.93 652.901 79.7093C651.876 78.4886 651.363 76.7552 651.363 74.5091V58.1273H646.553V54.6361H651.363V48.2396H655.88Z" fill="black"/>
<path d="M187 211V267" stroke="#1C4E63" stroke-width="20"/>
<path d="M187 334V390" stroke="#1C4E63" stroke-width="20"/>
<path d="M58.2102 176.262C54.19 175.106 51.2603 173.69 49.4211 172.014C47.5982 170.321 46.6867 168.238 46.6867 165.764C46.6867 162.964 47.8016 160.653 50.0315 158.83C52.2776 156.991 55.191 156.071 58.7717 156.071C61.2131 156.071 63.386 156.543 65.2903 157.487C67.2108 158.431 68.6919 159.734 69.7336 161.394C70.7916 163.054 71.3205 164.869 71.3205 166.838H66.6086C66.6086 164.69 65.925 163.005 64.5578 161.784C63.1906 160.547 61.2619 159.929 58.7717 159.929C56.4605 159.929 54.6539 160.442 53.3518 161.467C52.066 162.476 51.4231 163.884 51.4231 165.691C51.4231 167.139 52.0334 168.368 53.2541 169.377C54.4911 170.37 56.5826 171.281 59.5285 172.111C62.4908 172.942 64.802 173.861 66.4621 174.87C68.1386 175.863 69.3755 177.027 70.1731 178.361C70.9869 179.696 71.3938 181.267 71.3938 183.073C71.3938 185.954 70.2707 188.265 68.0246 190.007C65.7785 191.732 62.7756 192.595 59.0158 192.595C56.5744 192.595 54.2958 192.131 52.1799 191.203C50.064 190.259 48.4283 188.973 47.2727 187.346C46.1334 185.718 45.5637 183.871 45.5637 181.804H50.2756C50.2756 183.952 51.065 185.653 52.6438 186.906C54.2388 188.143 56.3628 188.762 59.0158 188.762C61.4898 188.762 63.386 188.257 64.7043 187.248C66.0227 186.239 66.6819 184.864 66.6819 183.122C66.6819 181.381 66.0715 180.038 64.8508 179.094C63.6301 178.134 61.4166 177.19 58.2102 176.262ZM99.0305 179.192C99.0305 183.212 98.1109 186.451 96.2717 188.908C94.4325 191.366 91.9423 192.595 88.801 192.595C85.5946 192.595 83.0718 191.578 81.2326 189.543V202.263H76.716V165.691H80.842L81.0617 168.62C82.9009 166.342 85.4563 165.202 88.7278 165.202C91.9016 165.202 94.4081 166.399 96.2473 168.791C98.1028 171.184 99.0305 174.512 99.0305 178.777V179.192ZM94.5139 178.679C94.5139 175.7 93.8791 173.348 92.6096 171.623C91.3401 169.898 89.5985 169.035 87.385 169.035C84.6506 169.035 82.5998 170.248 81.2326 172.673V185.295C82.5835 187.704 84.6506 188.908 87.4338 188.908C89.5985 188.908 91.3156 188.054 92.5852 186.345C93.871 184.62 94.5139 182.064 94.5139 178.679ZM117.561 169.743C116.877 169.629 116.137 169.572 115.339 169.572C112.377 169.572 110.367 170.834 109.309 173.357V192.107H104.792V165.691H109.187L109.26 168.742C110.741 166.382 112.841 165.202 115.559 165.202C116.438 165.202 117.105 165.316 117.561 165.544V169.743ZM126.643 192.107H122.126V165.691H126.643V192.107ZM121.76 158.684C121.76 157.951 121.98 157.333 122.419 156.828C122.875 156.324 123.542 156.071 124.421 156.071C125.3 156.071 125.967 156.324 126.423 156.828C126.879 157.333 127.107 157.951 127.107 158.684C127.107 159.416 126.879 160.027 126.423 160.515C125.967 161.003 125.3 161.247 124.421 161.247C123.542 161.247 122.875 161.003 122.419 160.515C121.98 160.027 121.76 159.416 121.76 158.684ZM140.022 159.294V165.691H144.953V169.182H140.022V185.564C140.022 186.622 140.241 187.419 140.681 187.956C141.12 188.477 141.869 188.737 142.927 188.737C143.448 188.737 144.164 188.64 145.075 188.445V192.107C143.887 192.432 142.732 192.595 141.609 192.595C139.59 192.595 138.069 191.985 137.043 190.764C136.018 189.543 135.505 187.81 135.505 185.564V169.182H130.696V165.691H135.505V159.294H140.022ZM161.213 192.595C157.632 192.595 154.719 191.423 152.473 189.079C150.227 186.719 149.104 183.57 149.104 179.631V178.801C149.104 176.181 149.6 173.845 150.593 171.794C151.602 169.727 153.002 168.116 154.792 166.96C156.599 165.788 158.552 165.202 160.652 165.202C164.086 165.202 166.755 166.334 168.659 168.596C170.564 170.858 171.516 174.097 171.516 178.313V180.193H153.62C153.685 182.797 154.442 184.904 155.891 186.516C157.356 188.111 159.211 188.908 161.457 188.908C163.052 188.908 164.403 188.583 165.51 187.932C166.617 187.281 167.585 186.418 168.415 185.344L171.174 187.492C168.961 190.894 165.64 192.595 161.213 192.595ZM160.652 168.913C158.829 168.913 157.299 169.581 156.062 170.915C154.825 172.234 154.06 174.089 153.767 176.482H166.999V176.14C166.869 173.845 166.251 172.071 165.144 170.818C164.037 169.548 162.54 168.913 160.652 168.913ZM204.817 175.481C204.817 178.964 204.231 182.007 203.059 184.611C201.887 187.199 200.227 189.177 198.078 190.544C195.93 191.911 193.423 192.595 190.559 192.595C187.759 192.595 185.277 191.911 183.113 190.544C180.948 189.161 179.263 187.199 178.059 184.66C176.871 182.105 176.26 179.151 176.228 175.798V173.235C176.228 169.817 176.822 166.797 178.01 164.177C179.198 161.556 180.875 159.555 183.039 158.171C185.22 156.771 187.711 156.071 190.51 156.071C193.358 156.071 195.865 156.763 198.03 158.147C200.211 159.514 201.887 161.508 203.059 164.128C204.231 166.732 204.817 169.768 204.817 173.235V175.481ZM200.154 173.186C200.154 168.97 199.307 165.739 197.614 163.493C195.922 161.231 193.554 160.1 190.51 160.1C187.548 160.1 185.212 161.231 183.503 163.493C181.81 165.739 180.94 168.864 180.891 172.868V175.481C180.891 179.566 181.745 182.78 183.454 185.124C185.18 187.452 187.548 188.615 190.559 188.615C193.586 188.615 195.93 187.517 197.59 185.32C199.25 183.106 200.105 179.94 200.154 175.822V173.186ZM233.503 179.192C233.503 183.228 232.575 186.475 230.72 188.933C228.864 191.374 226.374 192.595 223.249 192.595C219.913 192.595 217.333 191.415 215.51 189.055L215.29 192.107H211.14V154.607H215.656V168.596C217.479 166.334 219.994 165.202 223.2 165.202C226.407 165.202 228.921 166.415 230.744 168.84C232.584 171.265 233.503 174.585 233.503 178.801V179.192ZM228.987 178.679C228.987 175.603 228.392 173.226 227.204 171.55C226.016 169.874 224.307 169.035 222.077 169.035C219.099 169.035 216.959 170.419 215.656 173.186V184.611C217.04 187.378 219.197 188.762 222.126 188.762C224.291 188.762 225.975 187.924 227.18 186.247C228.384 184.571 228.987 182.048 228.987 178.679ZM243.879 165.691V195.158C243.879 200.236 241.576 202.776 236.97 202.776C235.977 202.776 235.058 202.629 234.211 202.336V198.723C234.732 198.853 235.416 198.918 236.262 198.918C237.271 198.918 238.036 198.641 238.557 198.088C239.094 197.551 239.363 196.607 239.363 195.256V165.691H243.879ZM238.899 158.684C238.899 157.968 239.118 157.357 239.558 156.853C240.014 156.332 240.673 156.071 241.535 156.071C242.414 156.071 243.082 156.324 243.537 156.828C243.993 157.333 244.221 157.951 244.221 158.684C244.221 159.416 243.993 160.027 243.537 160.515C243.082 161.003 242.414 161.247 241.535 161.247C240.656 161.247 239.997 161.003 239.558 160.515C239.118 160.027 238.899 159.416 238.899 158.684ZM262.141 192.595C258.56 192.595 255.647 191.423 253.401 189.079C251.155 186.719 250.031 183.57 250.031 179.631V178.801C250.031 176.181 250.528 173.845 251.521 171.794C252.53 169.727 253.93 168.116 255.72 166.96C257.527 165.788 259.48 165.202 261.579 165.202C265.014 165.202 267.683 166.334 269.587 168.596C271.491 170.858 272.444 174.097 272.444 178.313V180.193H254.548C254.613 182.797 255.37 184.904 256.819 186.516C258.283 188.111 260.139 188.908 262.385 188.908C263.98 188.908 265.331 188.583 266.438 187.932C267.544 187.281 268.513 186.418 269.343 185.344L272.102 187.492C269.888 190.894 266.568 192.595 262.141 192.595ZM261.579 168.913C259.756 168.913 258.226 169.581 256.989 170.915C255.752 172.234 254.988 174.089 254.695 176.482H267.927V176.14C267.797 173.845 267.178 172.071 266.072 170.818C264.965 169.548 263.467 168.913 261.579 168.913ZM288.288 188.908C289.9 188.908 291.308 188.42 292.512 187.444C293.716 186.467 294.384 185.246 294.514 183.781H298.786C298.705 185.295 298.184 186.736 297.224 188.103C296.264 189.47 294.978 190.56 293.366 191.374C291.771 192.188 290.079 192.595 288.288 192.595C284.691 192.595 281.827 191.399 279.695 189.006C277.579 186.597 276.521 183.309 276.521 179.143V178.386C276.521 175.814 276.993 173.528 277.937 171.526C278.881 169.524 280.232 167.969 281.989 166.862C283.764 165.756 285.855 165.202 288.264 165.202C291.226 165.202 293.684 166.089 295.637 167.863C297.606 169.638 298.656 171.941 298.786 174.773H294.514C294.384 173.064 293.733 171.664 292.561 170.573C291.405 169.467 289.973 168.913 288.264 168.913C285.969 168.913 284.187 169.743 282.917 171.403C281.664 173.047 281.037 175.432 281.037 178.557V179.411C281.037 182.455 281.664 184.799 282.917 186.443C284.17 188.086 285.961 188.908 288.288 188.908ZM309.992 159.294V165.691H314.924V169.182H309.992V185.564C309.992 186.622 310.212 187.419 310.652 187.956C311.091 188.477 311.84 188.737 312.898 188.737C313.419 188.737 314.135 188.64 315.046 188.445V192.107C313.858 192.432 312.702 192.595 311.579 192.595C309.561 192.595 308.039 191.985 307.014 190.764C305.988 189.543 305.476 187.81 305.476 185.564V169.182H300.666V165.691H305.476V159.294H309.992Z" fill="black"/>
<rect x="12" y="141" width="386.163" height="65.6896" rx="25" stroke="#1C4E63" stroke-width="10"/>
<path d="M88.3711 310.337C87.1667 312.062 85.4821 313.356 83.3174 314.219C81.1689 315.065 78.6624 315.488 75.7979 315.488C72.9007 315.488 70.3291 314.813 68.083 313.462C65.8369 312.095 64.0954 310.158 62.8584 307.651C61.6377 305.145 61.0111 302.24 60.9785 298.936V295.835C60.9785 290.48 62.2236 286.33 64.7139 283.384C67.2204 280.438 70.736 278.965 75.2607 278.965C78.9717 278.965 81.9583 279.917 84.2207 281.821C86.4831 283.709 87.8665 286.395 88.3711 289.878H83.6836C82.8047 285.174 80.0052 282.822 75.2852 282.822C72.1439 282.822 69.7594 283.929 68.1318 286.143C66.5205 288.34 65.7067 291.53 65.6904 295.713V298.618C65.6904 302.606 66.6019 305.78 68.4248 308.14C70.2477 310.483 72.7135 311.655 75.8223 311.655C77.5801 311.655 79.1182 311.46 80.4365 311.069C81.7549 310.679 82.8454 310.02 83.708 309.092V301.108H75.4805V297.3H88.3711V310.337ZM111.809 315C111.548 314.479 111.337 313.551 111.174 312.217C109.074 314.398 106.568 315.488 103.654 315.488C101.05 315.488 98.9098 314.756 97.2334 313.291C95.5732 311.81 94.7432 309.938 94.7432 307.676C94.7432 304.925 95.7848 302.793 97.8682 301.279C99.9678 299.749 102.914 298.984 106.706 298.984H111.101V296.909C111.101 295.33 110.629 294.077 109.685 293.149C108.741 292.205 107.349 291.733 105.51 291.733C103.898 291.733 102.548 292.14 101.457 292.954C100.367 293.768 99.8213 294.753 99.8213 295.908H95.2803C95.2803 294.59 95.7441 293.32 96.6719 292.1C97.6159 290.863 98.8854 289.886 100.48 289.17C102.092 288.454 103.858 288.096 105.778 288.096C108.822 288.096 111.206 288.861 112.932 290.391C114.657 291.904 115.552 293.996 115.617 296.665V308.823C115.617 311.248 115.926 313.177 116.545 314.609V315H111.809ZM104.313 311.558C105.729 311.558 107.072 311.191 108.342 310.459C109.611 309.727 110.531 308.774 111.101 307.603V302.183H107.561C102.027 302.183 99.2598 303.802 99.2598 307.041C99.2598 308.457 99.7318 309.564 100.676 310.361C101.62 311.159 102.832 311.558 104.313 311.558ZM126.945 288.584L127.067 291.514C129.004 289.235 131.617 288.096 134.904 288.096C138.599 288.096 141.114 289.512 142.448 292.344C143.327 291.074 144.466 290.049 145.866 289.268C147.282 288.486 148.951 288.096 150.871 288.096C156.665 288.096 159.611 291.164 159.709 297.3V315H155.192V297.568C155.192 295.68 154.761 294.272 153.898 293.345C153.036 292.401 151.587 291.929 149.553 291.929C147.876 291.929 146.485 292.433 145.378 293.442C144.271 294.435 143.628 295.778 143.449 297.471V315H138.908V297.69C138.908 293.849 137.028 291.929 133.269 291.929C130.306 291.929 128.28 293.19 127.189 295.713V315H122.673V288.584H126.945ZM177.507 315.488C173.926 315.488 171.013 314.316 168.767 311.973C166.521 309.613 165.397 306.463 165.397 302.524V301.694C165.397 299.074 165.894 296.738 166.887 294.688C167.896 292.62 169.296 291.009 171.086 289.854C172.893 288.682 174.846 288.096 176.945 288.096C180.38 288.096 183.049 289.227 184.953 291.489C186.857 293.752 187.81 296.991 187.81 301.206V303.086H169.914C169.979 305.69 170.736 307.798 172.185 309.409C173.649 311.004 175.505 311.802 177.751 311.802C179.346 311.802 180.697 311.476 181.804 310.825C182.91 310.174 183.879 309.312 184.709 308.237L187.468 310.386C185.254 313.787 181.934 315.488 177.507 315.488ZM176.945 291.807C175.122 291.807 173.592 292.474 172.355 293.809C171.118 295.127 170.354 296.982 170.061 299.375H183.293V299.033C183.163 296.738 182.544 294.964 181.438 293.711C180.331 292.441 178.833 291.807 176.945 291.807ZM204.24 299.155C200.22 298 197.29 296.584 195.451 294.907C193.628 293.215 192.717 291.131 192.717 288.657C192.717 285.858 193.832 283.547 196.062 281.724C198.308 279.884 201.221 278.965 204.802 278.965C207.243 278.965 209.416 279.437 211.32 280.381C213.241 281.325 214.722 282.627 215.764 284.287C216.822 285.947 217.351 287.762 217.351 289.731H212.639C212.639 287.583 211.955 285.898 210.588 284.678C209.221 283.441 207.292 282.822 204.802 282.822C202.491 282.822 200.684 283.335 199.382 284.36C198.096 285.369 197.453 286.777 197.453 288.584C197.453 290.033 198.063 291.261 199.284 292.271C200.521 293.263 202.613 294.175 205.559 295.005C208.521 295.835 210.832 296.755 212.492 297.764C214.169 298.757 215.406 299.92 216.203 301.255C217.017 302.59 217.424 304.16 217.424 305.967C217.424 308.848 216.301 311.159 214.055 312.9C211.809 314.626 208.806 315.488 205.046 315.488C202.604 315.488 200.326 315.024 198.21 314.097C196.094 313.153 194.458 311.867 193.303 310.239C192.163 308.612 191.594 306.764 191.594 304.697H196.306C196.306 306.846 197.095 308.547 198.674 309.8C200.269 311.037 202.393 311.655 205.046 311.655C207.52 311.655 209.416 311.151 210.734 310.142C212.053 309.132 212.712 307.757 212.712 306.016C212.712 304.274 212.102 302.931 210.881 301.987C209.66 301.027 207.447 300.083 204.24 299.155ZM245.061 302.085C245.061 306.105 244.141 309.344 242.302 311.802C240.463 314.259 237.972 315.488 234.831 315.488C231.625 315.488 229.102 314.471 227.263 312.437V325.156H222.746V288.584H226.872L227.092 291.514C228.931 289.235 231.486 288.096 234.758 288.096C237.932 288.096 240.438 289.292 242.277 291.685C244.133 294.077 245.061 297.406 245.061 301.67V302.085ZM240.544 301.572C240.544 298.594 239.909 296.242 238.64 294.517C237.37 292.791 235.629 291.929 233.415 291.929C230.681 291.929 228.63 293.141 227.263 295.566V308.188C228.614 310.597 230.681 311.802 233.464 311.802C235.629 311.802 237.346 310.947 238.615 309.238C239.901 307.513 240.544 304.958 240.544 301.572ZM263.591 292.637C262.907 292.523 262.167 292.466 261.369 292.466C258.407 292.466 256.397 293.727 255.339 296.25V315H250.822V288.584H255.217L255.29 291.636C256.771 289.276 258.871 288.096 261.589 288.096C262.468 288.096 263.135 288.21 263.591 288.438V292.637ZM272.673 315H268.156V288.584H272.673V315ZM267.79 281.577C267.79 280.845 268.01 280.226 268.449 279.722C268.905 279.217 269.572 278.965 270.451 278.965C271.33 278.965 271.997 279.217 272.453 279.722C272.909 280.226 273.137 280.845 273.137 281.577C273.137 282.31 272.909 282.92 272.453 283.408C271.997 283.896 271.33 284.141 270.451 284.141C269.572 284.141 268.905 283.896 268.449 283.408C268.01 282.92 267.79 282.31 267.79 281.577ZM286.052 282.188V288.584H290.983V292.075H286.052V308.457C286.052 309.515 286.271 310.312 286.711 310.85C287.15 311.37 287.899 311.631 288.957 311.631C289.478 311.631 290.194 311.533 291.105 311.338V315C289.917 315.326 288.762 315.488 287.639 315.488C285.62 315.488 284.099 314.878 283.073 313.657C282.048 312.437 281.535 310.703 281.535 308.457V292.075H276.726V288.584H281.535V282.188H286.052ZM307.243 315.488C303.662 315.488 300.749 314.316 298.503 311.973C296.257 309.613 295.134 306.463 295.134 302.524V301.694C295.134 299.074 295.63 296.738 296.623 294.688C297.632 292.62 299.032 291.009 300.822 289.854C302.629 288.682 304.582 288.096 306.682 288.096C310.116 288.096 312.785 289.227 314.689 291.489C316.594 293.752 317.546 296.991 317.546 301.206V303.086H299.65C299.715 305.69 300.472 307.798 301.921 309.409C303.386 311.004 305.241 311.802 307.487 311.802C309.082 311.802 310.433 311.476 311.54 310.825C312.647 310.174 313.615 309.312 314.445 308.237L317.204 310.386C314.991 313.787 311.67 315.488 307.243 315.488ZM306.682 291.807C304.859 291.807 303.329 292.474 302.092 293.809C300.855 295.127 300.09 296.982 299.797 299.375H313.029V299.033C312.899 296.738 312.281 294.964 311.174 293.711C310.067 292.441 308.57 291.807 306.682 291.807Z" fill="black"/>
<rect x="12" y="265" width="386.163" height="65.6896" rx="25" stroke="#1C4E63" stroke-width="10"/>
<path d="M116.813 420.084V434H112.126V398.453H125.236C129.126 398.453 132.17 399.446 134.367 401.432C136.581 403.417 137.688 406.046 137.688 409.317C137.688 412.768 136.605 415.429 134.44 417.301C132.292 419.156 129.208 420.084 125.188 420.084H116.813ZM116.813 416.251H125.236C127.743 416.251 129.663 415.665 130.998 414.493C132.333 413.305 133 411.596 133 409.366C133 407.25 132.333 405.558 130.998 404.288C129.663 403.019 127.832 402.359 125.505 402.311H116.813V416.251ZM147.868 434H143.352V396.5H147.868V434ZM171.428 434C171.167 433.479 170.956 432.551 170.793 431.217C168.693 433.398 166.187 434.488 163.273 434.488C160.669 434.488 158.529 433.756 156.853 432.291C155.192 430.81 154.362 428.938 154.362 426.676C154.362 423.925 155.404 421.793 157.487 420.279C159.587 418.749 162.533 417.984 166.325 417.984H170.72V415.909C170.72 414.33 170.248 413.077 169.304 412.149C168.36 411.205 166.968 410.733 165.129 410.733C163.518 410.733 162.167 411.14 161.076 411.954C159.986 412.768 159.44 413.753 159.44 414.908H154.899C154.899 413.59 155.363 412.32 156.291 411.1C157.235 409.863 158.505 408.886 160.1 408.17C161.711 407.454 163.477 407.096 165.397 407.096C168.441 407.096 170.826 407.861 172.551 409.391C174.276 410.904 175.171 412.996 175.236 415.665V427.823C175.236 430.248 175.546 432.177 176.164 433.609V434H171.428ZM163.933 430.558C165.349 430.558 166.691 430.191 167.961 429.459C169.23 428.727 170.15 427.774 170.72 426.603V421.183H167.18C161.646 421.183 158.879 422.802 158.879 426.041C158.879 427.457 159.351 428.564 160.295 429.361C161.239 430.159 162.451 430.558 163.933 430.558ZM190.568 427.384L196.721 407.584H201.555L190.935 438.077C189.291 442.472 186.678 444.669 183.098 444.669L182.243 444.596L180.559 444.278V440.616L181.779 440.714C183.309 440.714 184.497 440.405 185.344 439.786C186.206 439.168 186.914 438.036 187.468 436.393L188.469 433.707L179.045 407.584H183.977L190.568 427.384ZM216.228 434.488C212.647 434.488 209.733 433.316 207.487 430.973C205.241 428.613 204.118 425.463 204.118 421.524V420.694C204.118 418.074 204.615 415.738 205.607 413.688C206.617 411.62 208.016 410.009 209.807 408.854C211.613 407.682 213.566 407.096 215.666 407.096C219.1 407.096 221.77 408.227 223.674 410.489C225.578 412.752 226.53 415.991 226.53 420.206V422.086H208.635C208.7 424.69 209.457 426.798 210.905 428.409C212.37 430.004 214.226 430.802 216.472 430.802C218.067 430.802 219.418 430.476 220.524 429.825C221.631 429.174 222.6 428.312 223.43 427.237L226.188 429.386C223.975 432.787 220.655 434.488 216.228 434.488ZM215.666 410.807C213.843 410.807 212.313 411.474 211.076 412.809C209.839 414.127 209.074 415.982 208.781 418.375H222.014V418.033C221.883 415.738 221.265 413.964 220.158 412.711C219.051 411.441 217.554 410.807 215.666 410.807ZM244.548 411.637C243.864 411.523 243.124 411.466 242.326 411.466C239.364 411.466 237.354 412.727 236.296 415.25V434H231.779V407.584H236.174L236.247 410.636C237.728 408.276 239.828 407.096 242.546 407.096C243.425 407.096 244.092 407.21 244.548 407.438V411.637Z" fill="black"/>
<rect x="5" y="388" width="386.163" height="65.6896" rx="25" stroke="#1C4E63" stroke-width="10"/>
<path d="M300.5 64.5C215.047 75.603 203.72 98.1565 190.5 141.5" stroke="#1C4E63" stroke-width="20"/>
<path d="M684 452V508" stroke="#1C4E63" stroke-width="20"/>
<path d="M663.371 435.337C662.167 437.062 660.482 438.356 658.317 439.219C656.169 440.065 653.662 440.488 650.798 440.488C647.901 440.488 645.329 439.813 643.083 438.462C640.837 437.095 639.095 435.158 637.858 432.651C636.638 430.145 636.011 427.24 635.979 423.936V420.835C635.979 415.48 637.224 411.33 639.714 408.384C642.22 405.438 645.736 403.965 650.261 403.965C653.972 403.965 656.958 404.917 659.221 406.821C661.483 408.709 662.867 411.395 663.371 414.878H658.684C657.805 410.174 655.005 407.822 650.285 407.822C647.144 407.822 644.759 408.929 643.132 411.143C641.521 413.34 640.707 416.53 640.69 420.713V423.618C640.69 427.606 641.602 430.78 643.425 433.14C645.248 435.483 647.714 436.655 650.822 436.655C652.58 436.655 654.118 436.46 655.437 436.069C656.755 435.679 657.845 435.02 658.708 434.092V426.108H650.48V422.3H663.371V435.337ZM683.269 417.637C682.585 417.523 681.844 417.466 681.047 417.466C678.085 417.466 676.075 418.727 675.017 421.25V440H670.5V413.584H674.895L674.968 416.636C676.449 414.276 678.549 413.096 681.267 413.096C682.146 413.096 682.813 413.21 683.269 413.438V417.637ZM692.351 440H687.834V413.584H692.351V440ZM687.468 406.577C687.468 405.845 687.688 405.226 688.127 404.722C688.583 404.217 689.25 403.965 690.129 403.965C691.008 403.965 691.675 404.217 692.131 404.722C692.587 405.226 692.814 405.845 692.814 406.577C692.814 407.31 692.587 407.92 692.131 408.408C691.675 408.896 691.008 409.141 690.129 409.141C689.25 409.141 688.583 408.896 688.127 408.408C687.688 407.92 687.468 407.31 687.468 406.577ZM698.503 426.572C698.503 422.52 699.463 419.264 701.384 416.807C703.304 414.333 705.819 413.096 708.928 413.096C712.02 413.096 714.47 414.154 716.276 416.27V402.5H720.793V440H716.643L716.423 437.168C714.616 439.382 712.102 440.488 708.879 440.488C705.819 440.488 703.321 439.235 701.384 436.729C699.463 434.222 698.503 430.951 698.503 426.914V426.572ZM703.02 427.085C703.02 430.08 703.638 432.424 704.875 434.116C706.112 435.809 707.821 436.655 710.002 436.655C712.867 436.655 714.958 435.369 716.276 432.798V420.664C714.925 418.174 712.85 416.929 710.051 416.929C707.837 416.929 706.112 417.783 704.875 419.492C703.638 421.201 703.02 423.732 703.02 427.085Z" fill="black"/>
<rect x="481" y="388" width="386.163" height="65.6896" rx="25" stroke="#1C4E63" stroke-width="10"/>
<path d="M585.838 549.167H602.684V553H581.126V517.453H585.838V549.167ZM618.284 553.488C614.703 553.488 611.79 552.316 609.544 549.973C607.298 547.613 606.175 544.463 606.175 540.524V539.694C606.175 537.074 606.671 534.738 607.664 532.688C608.673 530.62 610.073 529.009 611.863 527.854C613.67 526.682 615.623 526.096 617.723 526.096C621.157 526.096 623.826 527.227 625.73 529.489C627.635 531.752 628.587 534.991 628.587 539.206V541.086H610.691C610.757 543.69 611.513 545.798 612.962 547.409C614.427 549.004 616.282 549.802 618.528 549.802C620.123 549.802 621.474 549.476 622.581 548.825C623.688 548.174 624.656 547.312 625.486 546.237L628.245 548.386C626.032 551.787 622.711 553.488 618.284 553.488ZM617.723 529.807C615.9 529.807 614.37 530.474 613.133 531.809C611.896 533.127 611.131 534.982 610.838 537.375H624.07V537.033C623.94 534.738 623.322 532.964 622.215 531.711C621.108 530.441 619.611 529.807 617.723 529.807ZM642.21 546.872L648.753 526.584H653.367L643.895 553H640.452L630.882 526.584H635.496L642.21 546.872ZM668.333 553.488C664.752 553.488 661.839 552.316 659.593 549.973C657.347 547.613 656.224 544.463 656.224 540.524V539.694C656.224 537.074 656.72 534.738 657.713 532.688C658.722 530.62 660.122 529.009 661.912 527.854C663.719 526.682 665.672 526.096 667.771 526.096C671.206 526.096 673.875 527.227 675.779 529.489C677.684 531.752 678.636 534.991 678.636 539.206V541.086H660.74C660.805 543.69 661.562 545.798 663.011 547.409C664.476 549.004 666.331 549.802 668.577 549.802C670.172 549.802 671.523 549.476 672.63 548.825C673.737 548.174 674.705 547.312 675.535 546.237L678.294 548.386C676.08 551.787 672.76 553.488 668.333 553.488ZM667.771 529.807C665.949 529.807 664.419 530.474 663.182 531.809C661.945 533.127 661.18 534.982 660.887 537.375H674.119V537.033C673.989 534.738 673.37 532.964 672.264 531.711C671.157 530.441 669.66 529.807 667.771 529.807ZM688.792 553H684.275V515.5H688.792V553ZM722.996 548.337C721.792 550.062 720.107 551.356 717.942 552.219C715.794 553.065 713.287 553.488 710.423 553.488C707.526 553.488 704.954 552.813 702.708 551.462C700.462 550.095 698.72 548.158 697.483 545.651C696.263 543.145 695.636 540.24 695.604 536.936V533.835C695.604 528.48 696.849 524.33 699.339 521.384C701.845 518.438 705.361 516.965 709.886 516.965C713.597 516.965 716.583 517.917 718.846 519.821C721.108 521.709 722.492 524.395 722.996 527.878H718.309C717.43 523.174 714.63 520.822 709.91 520.822C706.769 520.822 704.384 521.929 702.757 524.143C701.146 526.34 700.332 529.53 700.315 533.713V536.618C700.315 540.606 701.227 543.78 703.05 546.14C704.873 548.483 707.339 549.655 710.447 549.655C712.205 549.655 713.743 549.46 715.062 549.069C716.38 548.679 717.47 548.02 718.333 547.092V539.108H710.105V535.3H722.996V548.337ZM742.894 530.637C742.21 530.523 741.469 530.466 740.672 530.466C737.71 530.466 735.7 531.727 734.642 534.25V553H730.125V526.584H734.52L734.593 529.636C736.074 527.276 738.174 526.096 740.892 526.096C741.771 526.096 742.438 526.21 742.894 526.438V530.637ZM751.976 553H747.459V526.584H751.976V553ZM747.093 519.577C747.093 518.845 747.312 518.226 747.752 517.722C748.208 517.217 748.875 516.965 749.754 516.965C750.633 516.965 751.3 517.217 751.756 517.722C752.212 518.226 752.439 518.845 752.439 519.577C752.439 520.31 752.212 520.92 751.756 521.408C751.3 521.896 750.633 522.141 749.754 522.141C748.875 522.141 748.208 521.896 747.752 521.408C747.312 520.92 747.093 520.31 747.093 519.577ZM758.128 539.572C758.128 535.52 759.088 532.264 761.009 529.807C762.929 527.333 765.444 526.096 768.553 526.096C771.645 526.096 774.095 527.154 775.901 529.27V515.5H780.418V553H776.268L776.048 550.168C774.241 552.382 771.727 553.488 768.504 553.488C765.444 553.488 762.946 552.235 761.009 549.729C759.088 547.222 758.128 543.951 758.128 539.914V539.572ZM762.645 540.085C762.645 543.08 763.263 545.424 764.5 547.116C765.737 548.809 767.446 549.655 769.627 549.655C772.492 549.655 774.583 548.369 775.901 545.798V533.664C774.55 531.174 772.475 529.929 769.676 529.929C767.462 529.929 765.737 530.783 764.5 532.492C763.263 534.201 762.645 536.732 762.645 540.085Z" fill="black"/>
<rect x="481" y="506" width="386.163" height="65.6896" rx="25" stroke="#1C4E63" stroke-width="10"/>
<rect x="587" y="142" width="386.163" height="65.6896" rx="25" fill="white" stroke="#1C4E63" stroke-width="10"/>
<path d="M767.686 162.311H756.261V194H751.598V162.311H740.196V158.453H767.686V162.311ZM780.772 194.488C777.192 194.488 774.278 193.316 772.032 190.973C769.786 188.613 768.663 185.463 768.663 181.524V180.694C768.663 178.074 769.159 175.738 770.152 173.688C771.161 171.62 772.561 170.009 774.352 168.854C776.158 167.682 778.111 167.096 780.211 167.096C783.645 167.096 786.314 168.227 788.219 170.489C790.123 172.752 791.075 175.991 791.075 180.206V182.086H773.18C773.245 184.69 774.002 186.798 775.45 188.409C776.915 190.004 778.77 190.802 781.017 190.802C782.612 190.802 783.963 190.476 785.069 189.825C786.176 189.174 787.145 188.312 787.975 187.237L790.733 189.386C788.52 192.787 785.2 194.488 780.772 194.488ZM780.211 170.807C778.388 170.807 776.858 171.474 775.621 172.809C774.384 174.127 773.619 175.982 773.326 178.375H786.559V178.033C786.428 175.738 785.81 173.964 784.703 172.711C783.596 171.441 782.099 170.807 780.211 170.807ZM805.186 177.228L811.046 167.584H816.319L807.677 180.646L816.588 194H811.363L805.26 184.112L799.156 194H793.907L802.818 180.646L794.176 167.584H799.4L805.186 177.228ZM827.257 161.188V167.584H832.188V171.075H827.257V187.457C827.257 188.515 827.477 189.312 827.916 189.85C828.355 190.37 829.104 190.631 830.162 190.631C830.683 190.631 831.399 190.533 832.311 190.338V194C831.122 194.326 829.967 194.488 828.844 194.488C826.825 194.488 825.304 193.878 824.278 192.657C823.253 191.437 822.74 189.703 822.74 187.457V171.075H817.931V167.584H822.74V161.188H827.257Z" fill="black"/>
<rect x="587" y="260" width="386.163" height="65.6896" rx="25" fill="white" stroke="#1C4E63" stroke-width="10"/>
<path d="M724.126 307V271.453H735.747C739.604 271.453 742.502 272.251 744.438 273.846C746.392 275.441 747.368 277.801 747.368 280.926C747.368 282.586 746.896 284.059 745.952 285.345C745.008 286.614 743.722 287.599 742.095 288.299C744.015 288.836 745.529 289.861 746.636 291.375C747.759 292.872 748.32 294.663 748.32 296.746C748.32 299.936 747.287 302.443 745.22 304.266C743.153 306.089 740.231 307 736.455 307H724.126ZM728.813 290.374V303.167H736.553C738.734 303.167 740.451 302.605 741.704 301.482C742.974 300.343 743.608 298.781 743.608 296.795C743.608 292.514 741.281 290.374 736.626 290.374H728.813ZM728.813 286.614H735.894C737.944 286.614 739.58 286.102 740.801 285.076C742.038 284.051 742.656 282.659 742.656 280.901C742.656 278.948 742.087 277.532 740.947 276.653C739.808 275.758 738.075 275.311 735.747 275.311H728.813V286.614ZM770.879 304.388C769.121 306.455 766.541 307.488 763.14 307.488C760.324 307.488 758.175 306.674 756.694 305.047C755.229 303.403 754.489 300.978 754.473 297.771V280.584H758.989V297.649C758.989 301.653 760.617 303.655 763.872 303.655C767.323 303.655 769.617 302.369 770.757 299.798V280.584H775.273V307H770.977L770.879 304.388ZM788.286 274.188V280.584H793.218V284.075H788.286V300.457C788.286 301.515 788.506 302.312 788.945 302.85C789.385 303.37 790.133 303.631 791.191 303.631C791.712 303.631 792.428 303.533 793.34 303.338V307C792.152 307.326 790.996 307.488 789.873 307.488C787.855 307.488 786.333 306.878 785.308 305.657C784.282 304.437 783.77 302.703 783.77 300.457V284.075H778.96V280.584H783.77V274.188H788.286ZM804.644 274.188V280.584H809.575V284.075H804.644V300.457C804.644 301.515 804.863 302.312 805.303 302.85C805.742 303.37 806.491 303.631 807.549 303.631C808.07 303.631 808.786 303.533 809.697 303.338V307C808.509 307.326 807.353 307.488 806.23 307.488C804.212 307.488 802.69 306.878 801.665 305.657C800.64 304.437 800.127 302.703 800.127 300.457V284.075H795.317V280.584H800.127V274.188H804.644ZM813.188 293.548C813.188 290.96 813.693 288.632 814.702 286.565C815.728 284.498 817.144 282.903 818.95 281.78C820.773 280.657 822.848 280.096 825.176 280.096C828.773 280.096 831.678 281.341 833.892 283.831C836.121 286.321 837.236 289.633 837.236 293.768V294.085C837.236 296.657 836.74 298.968 835.747 301.019C834.77 303.053 833.363 304.64 831.523 305.779C829.7 306.919 827.601 307.488 825.225 307.488C821.644 307.488 818.739 306.243 816.509 303.753C814.295 301.263 813.188 297.967 813.188 293.865V293.548ZM817.729 294.085C817.729 297.015 818.405 299.367 819.756 301.141C821.123 302.915 822.946 303.802 825.225 303.802C827.52 303.802 829.342 302.907 830.693 301.116C832.044 299.31 832.72 296.787 832.72 293.548C832.72 290.651 832.028 288.307 830.645 286.517C829.277 284.71 827.454 283.807 825.176 283.807C822.946 283.807 821.147 284.694 819.78 286.468C818.413 288.242 817.729 290.781 817.729 294.085ZM847.173 280.584L847.319 283.904C849.338 281.365 851.974 280.096 855.229 280.096C860.812 280.096 863.628 283.245 863.677 289.544V307H859.16V289.52C859.144 287.615 858.704 286.207 857.842 285.296C856.995 284.384 855.669 283.929 853.862 283.929C852.397 283.929 851.112 284.319 850.005 285.101C848.898 285.882 848.035 286.907 847.417 288.177V307H842.9V280.584H847.173Z" fill="black"/>
<path d="M27 527H108" stroke="#1C4E63" stroke-width="20"/>
<path d="M146.105 527.02C146.105 528.691 145.824 530.152 145.262 531.402C144.699 532.645 143.902 533.594 142.871 534.25C141.84 534.906 140.637 535.234 139.262 535.234C137.918 535.234 136.727 534.906 135.688 534.25C134.648 533.586 133.84 532.645 133.262 531.426C132.691 530.199 132.398 528.781 132.383 527.172V525.941C132.383 524.301 132.668 522.852 133.238 521.594C133.809 520.336 134.613 519.375 135.652 518.711C136.699 518.039 137.895 517.703 139.238 517.703C140.605 517.703 141.809 518.035 142.848 518.699C143.895 519.355 144.699 520.312 145.262 521.57C145.824 522.82 146.105 524.277 146.105 525.941V527.02ZM143.867 525.918C143.867 523.895 143.461 522.344 142.648 521.266C141.836 520.18 140.699 519.637 139.238 519.637C137.816 519.637 136.695 520.18 135.875 521.266C135.062 522.344 134.645 523.844 134.621 525.766V527.02C134.621 528.98 135.031 530.523 135.852 531.648C136.68 532.766 137.816 533.324 139.262 533.324C140.715 533.324 141.84 532.797 142.637 531.742C143.434 530.68 143.844 529.16 143.867 527.184V525.918ZM154.707 523.047C156.301 523.047 157.574 523.582 158.527 524.652C159.488 525.715 159.969 527.117 159.969 528.859V529.059C159.969 530.254 159.738 531.324 159.277 532.27C158.816 533.207 158.152 533.938 157.285 534.461C156.426 534.977 155.434 535.234 154.309 535.234C152.605 535.234 151.234 534.668 150.195 533.535C149.156 532.395 148.637 530.867 148.637 528.953V527.898C148.637 525.234 149.129 523.117 150.113 521.547C151.105 519.977 152.566 519.02 154.496 518.676C155.59 518.48 156.328 518.242 156.711 517.961C157.094 517.68 157.285 517.293 157.285 516.801H159.066C159.066 517.777 158.844 518.539 158.398 519.086C157.961 519.633 157.258 520.02 156.289 520.246L154.672 520.609C153.383 520.914 152.414 521.43 151.766 522.156C151.125 522.875 150.707 523.836 150.512 525.039C151.66 523.711 153.059 523.047 154.707 523.047ZM154.285 524.828C153.223 524.828 152.379 525.188 151.754 525.906C151.129 526.617 150.816 527.605 150.816 528.871V529.059C150.816 530.418 151.129 531.496 151.754 532.293C152.387 533.082 153.238 533.477 154.309 533.477C155.387 533.477 156.238 533.078 156.863 532.281C157.488 531.484 157.801 530.32 157.801 528.789C157.801 527.594 157.484 526.637 156.852 525.918C156.227 525.191 155.371 524.828 154.285 524.828ZM164.773 526.691H168.066C169.504 526.707 170.641 527.082 171.477 527.816C172.312 528.551 172.73 529.547 172.73 530.805C172.73 532.07 172.301 533.086 171.441 533.852C170.582 534.617 169.426 535 167.973 535H162.605V522.32H164.773V526.691ZM177.254 535H175.074V522.32H177.254V535ZM164.773 528.461V533.23H167.996C168.809 533.23 169.438 533.023 169.883 532.609C170.328 532.188 170.551 531.613 170.551 530.887C170.551 530.184 170.332 529.609 169.895 529.164C169.465 528.711 168.859 528.477 168.078 528.461H164.773ZM190.613 535H188.434V530.406C187.48 530.656 186.504 530.781 185.504 530.781C183.918 530.781 182.707 530.375 181.871 529.562C181.043 528.75 180.621 527.594 180.605 526.094V522.309H182.773V526.164C182.812 528.055 183.723 529 185.504 529C186.504 529 187.48 528.875 188.434 528.625V522.32H190.613V535ZM204.453 535H202.285V529.586H196.461V535H194.281V522.32H196.461V527.816H202.285V522.32H204.453V535ZM207.371 528.543C207.371 527.301 207.613 526.184 208.098 525.191C208.59 524.199 209.27 523.434 210.137 522.895C211.012 522.355 212.008 522.086 213.125 522.086C214.852 522.086 216.246 522.684 217.309 523.879C218.379 525.074 218.914 526.664 218.914 528.648V528.801C218.914 530.035 218.676 531.145 218.199 532.129C217.73 533.105 217.055 533.867 216.172 534.414C215.297 534.961 214.289 535.234 213.148 535.234C211.43 535.234 210.035 534.637 208.965 533.441C207.902 532.246 207.371 530.664 207.371 528.695V528.543ZM209.551 528.801C209.551 530.207 209.875 531.336 210.523 532.188C211.18 533.039 212.055 533.465 213.148 533.465C214.25 533.465 215.125 533.035 215.773 532.176C216.422 531.309 216.746 530.098 216.746 528.543C216.746 527.152 216.414 526.027 215.75 525.168C215.094 524.301 214.219 523.867 213.125 523.867C212.055 523.867 211.191 524.293 210.535 525.145C209.879 525.996 209.551 527.215 209.551 528.801ZM226.895 535.234C225.176 535.234 223.777 534.672 222.699 533.547C221.621 532.414 221.082 530.902 221.082 529.012V528.613C221.082 527.355 221.32 526.234 221.797 525.25C222.281 524.258 222.953 523.484 223.812 522.93C224.68 522.367 225.617 522.086 226.625 522.086C228.273 522.086 229.555 522.629 230.469 523.715C231.383 524.801 231.84 526.355 231.84 528.379V529.281H223.25C223.281 530.531 223.645 531.543 224.34 532.316C225.043 533.082 225.934 533.465 227.012 533.465C227.777 533.465 228.426 533.309 228.957 532.996C229.488 532.684 229.953 532.27 230.352 531.754L231.676 532.785C230.613 534.418 229.02 535.234 226.895 535.234ZM226.625 523.867C225.75 523.867 225.016 524.188 224.422 524.828C223.828 525.461 223.461 526.352 223.32 527.5H229.672V527.336C229.609 526.234 229.312 525.383 228.781 524.781C228.25 524.172 227.531 523.867 226.625 523.867ZM250.672 535H248.504V529.586H242.68V535H240.5V522.32H242.68V527.816H248.504V522.32H250.672V535ZM261.992 535C261.867 534.75 261.766 534.305 261.688 533.664C260.68 534.711 259.477 535.234 258.078 535.234C256.828 535.234 255.801 534.883 254.996 534.18C254.199 533.469 253.801 532.57 253.801 531.484C253.801 530.164 254.301 529.141 255.301 528.414C256.309 527.68 257.723 527.312 259.543 527.312H261.652V526.316C261.652 525.559 261.426 524.957 260.973 524.512C260.52 524.059 259.852 523.832 258.969 523.832C258.195 523.832 257.547 524.027 257.023 524.418C256.5 524.809 256.238 525.281 256.238 525.836H254.059C254.059 525.203 254.281 524.594 254.727 524.008C255.18 523.414 255.789 522.945 256.555 522.602C257.328 522.258 258.176 522.086 259.098 522.086C260.559 522.086 261.703 522.453 262.531 523.188C263.359 523.914 263.789 524.918 263.82 526.199V532.035C263.82 533.199 263.969 534.125 264.266 534.812V535H261.992ZM258.395 533.348C259.074 533.348 259.719 533.172 260.328 532.82C260.938 532.469 261.379 532.012 261.652 531.449V528.848H259.953C257.297 528.848 255.969 529.625 255.969 531.18C255.969 531.859 256.195 532.391 256.648 532.773C257.102 533.156 257.684 533.348 258.395 533.348ZM272.305 533.465C273.078 533.465 273.754 533.23 274.332 532.762C274.91 532.293 275.23 531.707 275.293 531.004H277.344C277.305 531.73 277.055 532.422 276.594 533.078C276.133 533.734 275.516 534.258 274.742 534.648C273.977 535.039 273.164 535.234 272.305 535.234C270.578 535.234 269.203 534.66 268.18 533.512C267.164 532.355 266.656 530.777 266.656 528.777V528.414C266.656 527.18 266.883 526.082 267.336 525.121C267.789 524.16 268.438 523.414 269.281 522.883C270.133 522.352 271.137 522.086 272.293 522.086C273.715 522.086 274.895 522.512 275.832 523.363C276.777 524.215 277.281 525.32 277.344 526.68H275.293C275.23 525.859 274.918 525.188 274.355 524.664C273.801 524.133 273.113 523.867 272.293 523.867C271.191 523.867 270.336 524.266 269.727 525.062C269.125 525.852 268.824 526.996 268.824 528.496V528.906C268.824 530.367 269.125 531.492 269.727 532.281C270.328 533.07 271.188 533.465 272.305 533.465ZM290.176 522.32V535H287.996V524.113H283.684L283.426 528.859C283.285 531.039 282.918 532.598 282.324 533.535C281.738 534.473 280.805 534.961 279.523 535H278.656V533.09L279.277 533.043C279.98 532.965 280.484 532.559 280.789 531.824C281.094 531.09 281.289 529.73 281.375 527.746L281.609 522.32H290.176ZM298.918 535.234C297.199 535.234 295.801 534.672 294.723 533.547C293.645 532.414 293.105 530.902 293.105 529.012V528.613C293.105 527.355 293.344 526.234 293.82 525.25C294.305 524.258 294.977 523.484 295.836 522.93C296.703 522.367 297.641 522.086 298.648 522.086C300.297 522.086 301.578 522.629 302.492 523.715C303.406 524.801 303.863 526.355 303.863 528.379V529.281H295.273C295.305 530.531 295.668 531.543 296.363 532.316C297.066 533.082 297.957 533.465 299.035 533.465C299.801 533.465 300.449 533.309 300.98 532.996C301.512 532.684 301.977 532.27 302.375 531.754L303.699 532.785C302.637 534.418 301.043 535.234 298.918 535.234ZM298.648 523.867C297.773 523.867 297.039 524.188 296.445 524.828C295.852 525.461 295.484 526.352 295.344 527.5H301.695V527.336C301.633 526.234 301.336 525.383 300.805 524.781C300.273 524.172 299.555 523.867 298.648 523.867ZM306.277 533.23L307.027 532.305C307.871 531.211 308.352 529.57 308.469 527.383L308.668 522.32H316.836V533.23H318.465V538.727H316.297V535H307.449V538.727H305.281L305.293 533.23H306.277ZM308.844 533.23H314.668V524.324H310.766L310.637 527.348C310.504 529.871 309.906 531.832 308.844 533.23ZM320.293 528.543C320.293 527.301 320.535 526.184 321.02 525.191C321.512 524.199 322.191 523.434 323.059 522.895C323.934 522.355 324.93 522.086 326.047 522.086C327.773 522.086 329.168 522.684 330.23 523.879C331.301 525.074 331.836 526.664 331.836 528.648V528.801C331.836 530.035 331.598 531.145 331.121 532.129C330.652 533.105 329.977 533.867 329.094 534.414C328.219 534.961 327.211 535.234 326.07 535.234C324.352 535.234 322.957 534.637 321.887 533.441C320.824 532.246 320.293 530.664 320.293 528.695V528.543ZM322.473 528.801C322.473 530.207 322.797 531.336 323.445 532.188C324.102 533.039 324.977 533.465 326.07 533.465C327.172 533.465 328.047 533.035 328.695 532.176C329.344 531.309 329.668 530.098 329.668 528.543C329.668 527.152 329.336 526.027 328.672 525.168C328.016 524.301 327.141 523.867 326.047 523.867C324.977 523.867 324.113 524.293 323.457 525.145C322.801 525.996 322.473 527.215 322.473 528.801ZM334.754 535V522.32H339.699C341.387 522.32 342.68 522.617 343.578 523.211C344.484 523.797 344.938 524.66 344.938 525.801C344.938 526.387 344.762 526.918 344.41 527.395C344.059 527.863 343.539 528.223 342.852 528.473C343.617 528.652 344.23 529.004 344.691 529.527C345.16 530.051 345.395 530.676 345.395 531.402C345.395 532.566 344.965 533.457 344.105 534.074C343.254 534.691 342.047 535 340.484 535H334.754ZM336.922 529.434V533.254H340.508C341.414 533.254 342.09 533.086 342.535 532.75C342.988 532.414 343.215 531.941 343.215 531.332C343.215 530.066 342.285 529.434 340.426 529.434H336.922ZM336.922 527.699H339.723C341.754 527.699 342.77 527.105 342.77 525.918C342.77 524.73 341.809 524.117 339.887 524.078H336.922V527.699ZM356.094 535C355.969 534.75 355.867 534.305 355.789 533.664C354.781 534.711 353.578 535.234 352.18 535.234C350.93 535.234 349.902 534.883 349.098 534.18C348.301 533.469 347.902 532.57 347.902 531.484C347.902 530.164 348.402 529.141 349.402 528.414C350.41 527.68 351.824 527.312 353.645 527.312H355.754V526.316C355.754 525.559 355.527 524.957 355.074 524.512C354.621 524.059 353.953 523.832 353.07 523.832C352.297 523.832 351.648 524.027 351.125 524.418C350.602 524.809 350.34 525.281 350.34 525.836H348.16C348.16 525.203 348.383 524.594 348.828 524.008C349.281 523.414 349.891 522.945 350.656 522.602C351.43 522.258 352.277 522.086 353.199 522.086C354.66 522.086 355.805 522.453 356.633 523.188C357.461 523.914 357.891 524.918 357.922 526.199V532.035C357.922 533.199 358.07 534.125 358.367 534.812V535H356.094ZM352.496 533.348C353.176 533.348 353.82 533.172 354.43 532.82C355.039 532.469 355.48 532.012 355.754 531.449V528.848H354.055C351.398 528.848 350.07 529.625 350.07 531.18C350.07 531.859 350.297 532.391 350.75 532.773C351.203 533.156 351.785 533.348 352.496 533.348ZM371.68 535H369.512V529.586H363.688V535H361.508V522.32H363.688V527.816H369.512V522.32H371.68V535ZM383.375 522.32H385.543V535H383.375V525.754L377.527 535H375.359V522.32H377.527V531.578L383.375 522.32ZM394.285 535.234C392.566 535.234 391.168 534.672 390.09 533.547C389.012 532.414 388.473 530.902 388.473 529.012V528.613C388.473 527.355 388.711 526.234 389.188 525.25C389.672 524.258 390.344 523.484 391.203 522.93C392.07 522.367 393.008 522.086 394.016 522.086C395.664 522.086 396.945 522.629 397.859 523.715C398.773 524.801 399.23 526.355 399.23 528.379V529.281H390.641C390.672 530.531 391.035 531.543 391.73 532.316C392.434 533.082 393.324 533.465 394.402 533.465C395.168 533.465 395.816 533.309 396.348 532.996C396.879 532.684 397.344 532.27 397.742 531.754L399.066 532.785C398.004 534.418 396.41 535.234 394.285 535.234ZM394.016 523.867C393.141 523.867 392.406 524.188 391.812 524.828C391.219 525.461 390.852 526.352 390.711 527.5H397.062V527.336C397 526.234 396.703 525.383 396.172 524.781C395.641 524.172 394.922 523.867 394.016 523.867Z" fill="black"/>
<path d="M29 596H110" stroke="#6022AF" stroke-width="20"/>
<path d="M145.738 586.938H147.988V604H145.738V590.852L137.336 604H135.074V586.938H137.336V600.086L145.738 586.938ZM156.836 602.465C157.609 602.465 158.285 602.23 158.863 601.762C159.441 601.293 159.762 600.707 159.824 600.004H161.875C161.836 600.73 161.586 601.422 161.125 602.078C160.664 602.734 160.047 603.258 159.273 603.648C158.508 604.039 157.695 604.234 156.836 604.234C155.109 604.234 153.734 603.66 152.711 602.512C151.695 601.355 151.188 599.777 151.188 597.777V597.414C151.188 596.18 151.414 595.082 151.867 594.121C152.32 593.16 152.969 592.414 153.812 591.883C154.664 591.352 155.668 591.086 156.824 591.086C158.246 591.086 159.426 591.512 160.363 592.363C161.309 593.215 161.812 594.32 161.875 595.68H159.824C159.762 594.859 159.449 594.188 158.887 593.664C158.332 593.133 157.645 592.867 156.824 592.867C155.723 592.867 154.867 593.266 154.258 594.062C153.656 594.852 153.355 595.996 153.355 597.496V597.906C153.355 599.367 153.656 600.492 154.258 601.281C154.859 602.07 155.719 602.465 156.836 602.465ZM174.684 604H172.516V593.113H166.68V604H164.5V591.32H174.684V604ZM177.59 597.543C177.59 596.301 177.832 595.184 178.316 594.191C178.809 593.199 179.488 592.434 180.355 591.895C181.23 591.355 182.227 591.086 183.344 591.086C185.07 591.086 186.465 591.684 187.527 592.879C188.598 594.074 189.133 595.664 189.133 597.648V597.801C189.133 599.035 188.895 600.145 188.418 601.129C187.949 602.105 187.273 602.867 186.391 603.414C185.516 603.961 184.508 604.234 183.367 604.234C181.648 604.234 180.254 603.637 179.184 602.441C178.121 601.246 177.59 599.664 177.59 597.695V597.543ZM179.77 597.801C179.77 599.207 180.094 600.336 180.742 601.188C181.398 602.039 182.273 602.465 183.367 602.465C184.469 602.465 185.344 602.035 185.992 601.176C186.641 600.309 186.965 599.098 186.965 597.543C186.965 596.152 186.633 595.027 185.969 594.168C185.312 593.301 184.438 592.867 183.344 592.867C182.273 592.867 181.41 593.293 180.754 594.145C180.098 594.996 179.77 596.215 179.77 597.801ZM202.059 591.32V604H199.879V593.113H195.566L195.309 597.859C195.168 600.039 194.801 601.598 194.207 602.535C193.621 603.473 192.688 603.961 191.406 604H190.539V602.09L191.16 602.043C191.863 601.965 192.367 601.559 192.672 600.824C192.977 600.09 193.172 598.73 193.258 596.746L193.492 591.32H202.059ZM207.906 595.691H211.199C212.637 595.707 213.773 596.082 214.609 596.816C215.445 597.551 215.863 598.547 215.863 599.805C215.863 601.07 215.434 602.086 214.574 602.852C213.715 603.617 212.559 604 211.105 604H205.738V591.32H207.906V595.691ZM207.906 597.461V602.23H211.129C211.941 602.23 212.57 602.023 213.016 601.609C213.461 601.188 213.684 600.613 213.684 599.887C213.684 599.184 213.465 598.609 213.027 598.164C212.598 597.711 211.992 597.477 211.211 597.461H207.906ZM225.543 594.789C225.543 594.195 225.316 593.727 224.863 593.383C224.41 593.031 223.789 592.855 223 592.855C222.234 592.855 221.594 593.055 221.078 593.453C220.57 593.852 220.316 594.32 220.316 594.859H218.16C218.16 593.758 218.621 592.855 219.543 592.152C220.465 591.449 221.617 591.098 223 591.098C224.484 591.098 225.641 591.418 226.469 592.059C227.297 592.691 227.711 593.598 227.711 594.777C227.711 595.348 227.539 595.871 227.195 596.348C226.852 596.824 226.363 597.203 225.73 597.484C227.207 597.984 227.945 598.969 227.945 600.438C227.945 601.602 227.496 602.523 226.598 603.203C225.699 603.883 224.5 604.223 223 604.223C221.539 604.223 220.332 603.867 219.379 603.156C218.434 602.438 217.961 601.469 217.961 600.25H220.117C220.117 600.867 220.391 601.398 220.938 601.844C221.492 602.281 222.18 602.5 223 602.5C223.828 602.5 224.496 602.309 225.004 601.926C225.512 601.543 225.766 601.047 225.766 600.438C225.766 599.727 225.551 599.219 225.121 598.914C224.699 598.602 224.039 598.445 223.141 598.445H220.973V596.617H223.328C224.805 596.578 225.543 595.969 225.543 594.789ZM234.906 600.824L237.859 591.32H240.18L235.082 605.957C234.293 608.066 233.039 609.121 231.32 609.121L230.91 609.086L230.102 608.934V607.176L230.688 607.223C231.422 607.223 231.992 607.074 232.398 606.777C232.812 606.48 233.152 605.938 233.418 605.148L233.898 603.859L229.375 591.32H231.742L234.906 600.824ZM247.223 604.234C245.504 604.234 244.105 603.672 243.027 602.547C241.949 601.414 241.41 599.902 241.41 598.012V597.613C241.41 596.355 241.648 595.234 242.125 594.25C242.609 593.258 243.281 592.484 244.141 591.93C245.008 591.367 245.945 591.086 246.953 591.086C248.602 591.086 249.883 591.629 250.797 592.715C251.711 593.801 252.168 595.355 252.168 597.379V598.281H243.578C243.609 599.531 243.973 600.543 244.668 601.316C245.371 602.082 246.262 602.465 247.34 602.465C248.105 602.465 248.754 602.309 249.285 601.996C249.816 601.684 250.281 601.27 250.68 600.754L252.004 601.785C250.941 603.418 249.348 604.234 247.223 604.234ZM246.953 592.867C246.078 592.867 245.344 593.188 244.75 593.828C244.156 594.461 243.789 595.352 243.648 596.5H250V596.336C249.938 595.234 249.641 594.383 249.109 593.781C248.578 593.172 247.859 592.867 246.953 592.867ZM263.969 593.078H259.715V604H257.547V593.078H253.375V591.32H263.969V593.078ZM270.227 602.465C271 602.465 271.676 602.23 272.254 601.762C272.832 601.293 273.152 600.707 273.215 600.004H275.266C275.227 600.73 274.977 601.422 274.516 602.078C274.055 602.734 273.438 603.258 272.664 603.648C271.898 604.039 271.086 604.234 270.227 604.234C268.5 604.234 267.125 603.66 266.102 602.512C265.086 601.355 264.578 599.777 264.578 597.777V597.414C264.578 596.18 264.805 595.082 265.258 594.121C265.711 593.16 266.359 592.414 267.203 591.883C268.055 591.352 269.059 591.086 270.215 591.086C271.637 591.086 272.816 591.512 273.754 592.363C274.699 593.215 275.203 594.32 275.266 595.68H273.215C273.152 594.859 272.84 594.188 272.277 593.664C271.723 593.133 271.035 592.867 270.215 592.867C269.113 592.867 268.258 593.266 267.648 594.062C267.047 594.852 266.746 595.996 266.746 597.496V597.906C266.746 599.367 267.047 600.492 267.648 601.281C268.25 602.07 269.109 602.465 270.227 602.465ZM287.395 591.32V604H285.215V599.066H281.945L278.957 604H276.613L279.801 598.738C278.988 598.441 278.363 597.984 277.926 597.367C277.496 596.742 277.281 596.016 277.281 595.188C277.281 594.031 277.715 593.102 278.582 592.398C279.449 591.688 280.609 591.328 282.062 591.32H287.395ZM279.461 595.211C279.461 595.828 279.672 596.328 280.094 596.711C280.516 597.086 281.074 597.277 281.77 597.285H285.215V593.078H282.098C281.293 593.078 280.652 593.277 280.176 593.676C279.699 594.066 279.461 594.578 279.461 595.211ZM300.777 598.598H299.195V604H297.016V591.32H299.195V596.688H300.613L304.879 591.32H307.504L302.488 597.414L307.926 604H305.172L300.777 598.598ZM317.617 604C317.492 603.75 317.391 603.305 317.312 602.664C316.305 603.711 315.102 604.234 313.703 604.234C312.453 604.234 311.426 603.883 310.621 603.18C309.824 602.469 309.426 601.57 309.426 600.484C309.426 599.164 309.926 598.141 310.926 597.414C311.934 596.68 313.348 596.312 315.168 596.312H317.277V595.316C317.277 594.559 317.051 593.957 316.598 593.512C316.145 593.059 315.477 592.832 314.594 592.832C313.82 592.832 313.172 593.027 312.648 593.418C312.125 593.809 311.863 594.281 311.863 594.836H309.684C309.684 594.203 309.906 593.594 310.352 593.008C310.805 592.414 311.414 591.945 312.18 591.602C312.953 591.258 313.801 591.086 314.723 591.086C316.184 591.086 317.328 591.453 318.156 592.188C318.984 592.914 319.414 593.918 319.445 595.199V601.035C319.445 602.199 319.594 603.125 319.891 603.812V604H317.617ZM314.02 602.348C314.699 602.348 315.344 602.172 315.953 601.82C316.562 601.469 317.004 601.012 317.277 600.449V597.848H315.578C312.922 597.848 311.594 598.625 311.594 600.18C311.594 600.859 311.82 601.391 312.273 601.773C312.727 602.156 313.309 602.348 314.02 602.348ZM326.793 598.598H325.211V604H323.031V591.32H325.211V596.688H326.629L330.895 591.32H333.52L328.504 597.414L333.941 604H331.188L326.793 598.598ZM352.129 604H349.961V593.113H344.125V604H341.945V591.32H352.129V604ZM355.035 597.543C355.035 596.301 355.277 595.184 355.762 594.191C356.254 593.199 356.934 592.434 357.801 591.895C358.676 591.355 359.672 591.086 360.789 591.086C362.516 591.086 363.91 591.684 364.973 592.879C366.043 594.074 366.578 595.664 366.578 597.648V597.801C366.578 599.035 366.34 600.145 365.863 601.129C365.395 602.105 364.719 602.867 363.836 603.414C362.961 603.961 361.953 604.234 360.812 604.234C359.094 604.234 357.699 603.637 356.629 602.441C355.566 601.246 355.035 599.664 355.035 597.695V597.543ZM357.215 597.801C357.215 599.207 357.539 600.336 358.188 601.188C358.844 602.039 359.719 602.465 360.812 602.465C361.914 602.465 362.789 602.035 363.438 601.176C364.086 600.309 364.41 599.098 364.41 597.543C364.41 596.152 364.078 595.027 363.414 594.168C362.758 593.301 361.883 592.867 360.789 592.867C359.719 592.867 358.855 593.293 358.199 594.145C357.543 594.996 357.215 596.215 357.215 597.801ZM379.504 591.32V604H377.324V593.113H373.012L372.754 597.859C372.613 600.039 372.246 601.598 371.652 602.535C371.066 603.473 370.133 603.961 368.852 604H367.984V602.09L368.605 602.043C369.309 601.965 369.812 601.559 370.117 600.824C370.422 600.09 370.617 598.73 370.703 596.746L370.938 591.32H379.504ZM388.246 604.234C386.527 604.234 385.129 603.672 384.051 602.547C382.973 601.414 382.434 599.902 382.434 598.012V597.613C382.434 596.355 382.672 595.234 383.148 594.25C383.633 593.258 384.305 592.484 385.164 591.93C386.031 591.367 386.969 591.086 387.977 591.086C389.625 591.086 390.906 591.629 391.82 592.715C392.734 593.801 393.191 595.355 393.191 597.379V598.281H384.602C384.633 599.531 384.996 600.543 385.691 601.316C386.395 602.082 387.285 602.465 388.363 602.465C389.129 602.465 389.777 602.309 390.309 601.996C390.84 601.684 391.305 601.27 391.703 600.754L393.027 601.785C391.965 603.418 390.371 604.234 388.246 604.234ZM387.977 592.867C387.102 592.867 386.367 593.188 385.773 593.828C385.18 594.461 384.812 595.352 384.672 596.5H391.023V596.336C390.961 595.234 390.664 594.383 390.133 593.781C389.602 593.172 388.883 592.867 387.977 592.867Z" fill="black"/>
</svg>
